<svg id="レイヤー_1" data-name="レイヤー 1" xmlns="http://www.w3.org/2000/svg" viewBox="0 0 1011.35 764.88"><defs><style>.cls-1{fill:red;}.cls-2{fill:#00c3ff;}</style></defs><path class="cls-1" d="M656.57,457.06l14.56-48.7,5,1v-6.53A274.81,274.81,0,0,1,673.64,437c-1.51,21.58-1,43.17,2.51,64.25a285.28,285.28,0,0,1,9,82.83c0,12.05-5.52,21.59-18.07,26.61L628,580.55q-12.06-6.78-7.53-19.58c3-35.64-1-68.78-11.55-99.9l-50.2,62.75c-6.53,8-14.56,13.55-24.1,16.07-4,2-8,1-12-2.52l.5-22.08c40.66-57.23,70.78-119,89.86-186.24,1.5-6.53,1.5-12.55,0-17.57l-3.52-10.55a55.48,55.48,0,0,1-37.15-.5c-3,0-5-1.5-6-4.52-1.51-2.51-1-5.52,1.51-8A648.9,648.9,0,0,1,628,209.57a69.21,69.21,0,0,1-2-33.63c9.54-8,19.07-14.56,30.12-19.08,3-1,6.52-.5,10,1.51,20.08,11.54,36.64,28.11,49.19,48.69,3.52,5,3.52,10.54.51,16.06A328.51,328.51,0,0,1,646,275.33c16.06,3.52,30.12,13.56,42.17,29.12,4.51,6,5.52,12.05,3,19.58a509.88,509.88,0,0,1-53.72,99.39C646.53,436,653.06,446.51,656.57,457.06Zm56.22-93.88A546.44,546.44,0,0,0,816.71,251.74c-26.11-2.51-49.7-13.05-70.78-30.12-2-1-3.52-3-4-6.53-1.51-3-1-5,1-6.52l2.51-5.53c22.09-10.54,44.68-15.56,67.27-17.06,32.13-5.53,59.74-11,84.34-17.07,16.06,5.52,28.11,16.56,36.14,32.13a28.41,28.41,0,0,1,4,24.59c-70.28,33.64-132,75.81-184.74,125.5a1212.93,1212.93,0,0,1,172.19-43.67A27.07,27.07,0,0,1,937.19,309a94.05,94.05,0,0,1,44.17,45.18,14,14,0,0,1,0,11,16.21,16.21,0,0,1-11,11c-6,1.51-11.55,2-16.57,1a660,660,0,0,0-77.31,0L894,394.81a33.11,33.11,0,0,1,9,17.07c8,48.69,11.05,97.38,7.53,147.08-.5,12.55-6,24.6-15.56,35.64l-24.1,18.58a12.79,12.79,0,0,1-12,2,123.75,123.75,0,0,1-40.67-14.55l-86.34-6.53a33.94,33.94,0,0,1-19.08-9l6-6c32.63-4,64.25-13,93.37-28.61,5-3.52,8-8,8.53-14.56a1050.3,1050.3,0,0,0,7.53-124,49.21,49.21,0,0,0-8-27.61c-41.66,6.52-80.32,21.58-117.47,44.67l-9-9c-3.52-2.51-5-5.52-3.52-10-1.5-13.56-.5-27.61,4-40.66Z" transform="translate(-502.04 -137.27)"/><path d="M636.07,438l14.56-48.69,5,1v-6.52a274.52,274.52,0,0,1-2.51,34.13c-1.51,21.59-1,43.18,2.51,64.26a285.28,285.28,0,0,1,9,82.83c0,12-5.52,21.59-18.07,26.61l-39.15-30.12q-12.06-6.78-7.53-19.58c3-35.64-1-68.78-11.55-99.9l-50.2,62.75c-6.53,8-14.56,13.55-24.1,16.06-4,2-8,1-12-2.51l.5-22.08C543.2,439,573.32,377.22,592.4,310c1.5-6.52,1.5-12.55,0-17.57l-3.52-10.54a55.48,55.48,0,0,1-37.15-.5q-4.51,0-6-4.52c-1.51-2.51-1-5.52,1.51-8a648.9,648.9,0,0,1,60.24-78.31,69.25,69.25,0,0,1-2-33.64c9.54-8,19.07-14.55,30.12-19.07,3-1,6.52-.5,10,1.5,20.08,11.55,36.64,28.12,49.19,48.7,3.52,5,3.52,10.54.51,16.06a328.85,328.85,0,0,1-69.78,52.21c16.06,3.51,30.12,13.55,42.17,29.12,4.51,6,5.52,12,3,19.57A509.67,509.67,0,0,1,617,404.33C626,416.88,632.56,427.42,636.07,438Zm56.22-93.87A546.44,546.44,0,0,0,796.21,232.65c-26.11-2.51-49.7-13.06-70.78-30.12-2-1-3.52-3-4-6.53-1.51-3-1-5,1-6.53l2.51-5.52c22.09-10.54,44.68-15.56,67.27-17.07,32.13-5.52,59.74-11,84.34-17.06,16.06,5.52,28.11,16.56,36.14,32.12a28.43,28.43,0,0,1,4,24.6c-70.28,33.64-132,75.8-184.74,125.5a1212.93,1212.93,0,0,1,172.19-43.67,27.18,27.18,0,0,1,12.55,1.5,94.1,94.1,0,0,1,44.17,45.18,14,14,0,0,1,0,11.05,16.21,16.21,0,0,1-11,11c-6,1.51-11.55,2-16.57,1a659.84,659.84,0,0,0-77.3,0l17.57,17.57a33.08,33.08,0,0,1,9,17.06c8,48.7,11.05,97.39,7.53,147.09-.5,12.55-6,24.6-15.56,35.64l-24.1,18.57a12.77,12.77,0,0,1-12,2,123.75,123.75,0,0,1-40.67-14.55L711.37,575a33.94,33.94,0,0,1-19.08-9l6-6c32.63-4,64.25-13.05,93.37-28.61,5-3.52,8-8,8.53-14.56a1050.34,1050.34,0,0,0,7.53-124,49.26,49.26,0,0,0-8-27.61c-41.66,6.53-80.32,21.59-117.47,44.68l-9-9c-3.52-2.51-5-5.53-3.52-10-1.5-13.56-.5-27.61,4-40.67Z" transform="translate(-502.04 -137.27)"/><path class="cls-2" d="M1036.9,792.58l19.1,1.74c3.48,15.06,7,28.95,11,40.53,4.06,10.42,4.64,20.27,1.16,31.27a53.38,53.38,0,0,1-19.11,26.63l-12.73-2.31c-11.58-1.16-22.58-6.37-31.85-15.64a366.6,366.6,0,0,1-34.16-48c-6.37-13.32-4.63-24.9,4.63-36.48q10.42-17.37,10.43-41.69C1007.37,760.74,1024.74,775.79,1036.9,792.58Zm19.68-214.8c-7.53-4-12.74-11-15.63-19.11a78,78,0,0,1,4-43.42c2.9-8.11,7.53-11,15.06-8.69,12.73,1.74,23.73-2.31,33-11,13.32-13.89,23.74-28.37,33-42.84-27.21-4.06-51.53-18-73.53-42.85,55.58-7.53,104.8-24.32,150-49.79,23.16,9.84,38.79,26.63,48.63,49.79-26,16.79-50.95,31.84-75.27,44-2.89,7.53-1.15,9.85,5.22,6.37,8.68-3.47,16.79-6.37,23.73-8.68a91.53,91.53,0,0,1,23.74-2.9c12.74,2.32,21.43,12.16,26.06,28.95A26.36,26.36,0,0,1,1250,495l-11,6.37a522.06,522.06,0,0,0-46.89,77.59c-31.85,57.9-68.9,113.48-112.33,165.59a24.6,24.6,0,0,1-20.84,11,107.67,107.67,0,0,1-32.43-6.37c-10.42-4-15.05-11.58-15.05-22-.58-5.21-.58-16.21-.58-33l22.58,15.63,12.74-11c30.11-46.9,47.48-74.11,53.27-82.22-8.69,1.74-19.11,5.21-31.85,10.42-6.37,2.32-11.58,1.16-15.63-2.89a25.15,25.15,0,0,1-4.63-19.11c1.73-12.16,8.68-22.58,19.1-32.42q11.3,10.42,24.32,5.21a168.74,168.74,0,0,1,40-11.58c8.69-13.9,17.37-26.64,24.9-39.37C1125.48,539.56,1092.48,556.36,1056.58,577.78Zm82.22,194.54c13.9-5.21,28.37-6.37,44-4.63a173.85,173.85,0,0,0,100.17-7,109.14,109.14,0,0,1,52.11-7.53,460.38,460.38,0,0,1,103.64,22,119.2,119.2,0,0,1,44.58,25.48c16.21,14.48,26.06,31.85,29.53,52.69,1.16,4,.58,8.68-2.32,13.32a25.67,25.67,0,0,1-12.16,6.94c-34.16.58-66.58-6.94-97.85-21.42-26.63,2.32-53.26,11.58-81.63,27.79,12.73-25.47,29-40.53,46.32-46.89A323.82,323.82,0,0,0,1276,803c-13.32-2.9-24.9-.58-35.9,6.37-17.95,11-33,20.26-44,29s-21.42,10.42-33.58,4.63c-25.48-7.53-44-23.74-54.43-49.22A94.78,94.78,0,0,1,1138.8,772.32Zm235.65-418c5.21-5.21,11-7,17.37-4.06,12.74,7.53,23.74,15.64,31.84,24.9,7.53,8.11,8.11,16.21,1.74,23.74a139.19,139.19,0,0,0-8.68,19.11,224.83,224.83,0,0,0-5.79,28.95c-3.48,61.37,2.31,119.85,17.37,176.59,7.52,40,1.73,78.74-16.79,115.8-4.06,6.95-10.43,11.58-18.53,14.47a23.62,23.62,0,0,1-21.43-3.47,316.86,316.86,0,0,0-44-27.21c-27.21-11.58-59.06-18-95-20.85a294.08,294.08,0,0,1,89.74-19.68,22.72,22.72,0,0,0,17.37-5.79,26.61,26.61,0,0,0,9.84-16.22,288.43,288.43,0,0,0,6.37-102.48q-3.47-73.82-3.47-145.9l-9.84-3.48A197.33,197.33,0,0,1,1374.45,354.29Zm-66,118.11c5.79-10.42,16.22-20.84,30.11-31.26-8.1,26.05-13.31,51.53-17.37,77a255.86,255.86,0,0,1-19.1,70.64c-1.16,5.21-4.06,8.68-8.69,11.58s-9.26,2.89-13.89,1.16a72.23,72.23,0,0,1-31.85-30.11,35.3,35.3,0,0,1-.58-25.48c12.74-33,15-68.32,6.37-104.79C1277.76,444,1296.29,455,1308.44,472.4Z" transform="translate(-502.04 -137.27)"/><path d="M1012.69,775.54l19.11,1.74c3.47,15.05,7,29,11,40.53,4,10.42,4.63,20.26,1.16,31.26a53.52,53.52,0,0,1-19.11,26.64l-12.74-2.32c-11.58-1.16-22.58-6.37-31.84-15.63a366.41,366.41,0,0,1-34.16-48.06c-6.37-13.32-4.63-24.9,4.63-36.48q10.43-17.37,10.42-41.68C983.16,743.69,1000.53,758.75,1012.69,775.54Zm19.69-214.81c-7.53-4.05-12.74-11-15.64-19.1a78.09,78.09,0,0,1,4.06-43.43c2.89-8.1,7.52-11,15-8.68,12.74,1.73,23.74-2.32,33-11,13.32-13.9,23.74-28.38,33-42.85-27.22-4.05-51.53-17.95-73.54-42.85,55.59-7.52,104.8-24.31,150-49.79,23.16,9.84,38.8,26.63,48.64,49.79-26.05,16.8-51,31.85-75.27,44-2.9,7.52-1.16,9.84,5.21,6.37,8.69-3.48,16.79-6.37,23.74-8.69a91.57,91.57,0,0,1,23.74-2.89c12.74,2.31,21.42,12.16,26.05,28.95a26.31,26.31,0,0,1-4.63,17.37l-11,6.37a522.06,522.06,0,0,0-46.9,77.58c-31.84,57.9-68.9,113.48-112.32,165.59a24.6,24.6,0,0,1-20.85,11,107.23,107.23,0,0,1-32.42-6.37c-10.42-4.05-15-11.57-15-22-.58-5.21-.58-16.21-.58-33l22.58,15.63,12.74-11c30.1-46.9,47.47-74.11,53.26-82.21-8.68,1.73-19.1,5.21-31.84,10.42-6.37,2.31-11.58,1.15-15.63-2.9a25.14,25.14,0,0,1-4.64-19.1c1.74-12.16,8.69-22.59,19.11-32.43q11.29,10.43,24.32,5.21a169.08,169.08,0,0,1,40-11.58c8.68-13.89,17.37-26.63,24.9-39.37C1101.28,522.52,1068.28,539.31,1032.38,560.73Zm82.21,194.54c13.9-5.21,28.37-6.36,44-4.63a173.72,173.72,0,0,0,100.16-6.95,109.13,109.13,0,0,1,52.11-7.52,459.28,459.28,0,0,1,103.64,22,119,119,0,0,1,44.59,25.48c16.21,14.47,26.05,31.84,29.52,52.68,1.16,4.06.58,8.69-2.31,13.32a25.82,25.82,0,0,1-12.16,7c-34.16.58-66.58-7-97.85-21.42-26.63,2.31-53.27,11.58-81.64,27.79,12.74-25.48,28.95-40.53,46.32-46.9A323.75,323.75,0,0,0,1251.82,786c-13.32-2.89-24.9-.58-35.9,6.37-18,11-33,20.26-44,28.95s-21.43,10.42-33.59,4.63c-25.47-7.53-44-23.74-54.42-49.21A94.66,94.66,0,0,1,1114.59,755.27Zm235.66-418c5.21-5.21,11-6.95,17.37-4.05,12.73,7.52,23.73,15.63,31.84,24.89,7.53,8.11,8.11,16.22,1.74,23.74a139.28,139.28,0,0,0-8.69,19.11,228.75,228.75,0,0,0-5.79,28.95c-3.47,61.37,2.32,119.85,17.37,176.59,7.53,39.95,1.74,78.75-16.79,115.8-4,7-10.42,11.58-18.53,14.48a23.63,23.63,0,0,1-21.42-3.48,318.42,318.42,0,0,0-44-27.21c-27.22-11.58-59.06-17.95-95-20.84a294.52,294.52,0,0,1,89.75-19.69,22.73,22.73,0,0,0,17.37-5.79,26.56,26.56,0,0,0,9.84-16.21,288.43,288.43,0,0,0,6.37-102.48q-3.48-73.83-3.48-145.91l-9.84-3.47A197.52,197.52,0,0,1,1350.25,337.24Zm-66,118.12c5.79-10.43,16.21-20.85,30.11-31.27-8.11,26.05-13.32,51.53-17.37,77a256.26,256.26,0,0,1-19.11,70.63c-1.16,5.21-4,8.69-8.68,11.58s-9.27,2.9-13.9,1.16a72.1,72.1,0,0,1-31.84-30.11,35.17,35.17,0,0,1-.58-25.47c12.73-33,15.05-68.32,6.37-104.8C1253.55,427,1272.08,438,1284.24,455.36Z" transform="translate(-502.04 -137.27)"/><path d="M567.29,844.72c2.86.2,6.43.71,13.88.71a57.67,57.67,0,0,0,15.19-1.63,1.35,1.35,0,0,1,.62-.1c.1,0,.2,0,.2.2s-.1.31-.41.62c-1.83,2.14-4.08,2.85-6.83,3.67-2.55.81-2.76,7.55-2.76,11.93,0,5.31.82,6.84,4,6.84a10.48,10.48,0,0,0,1.84-.21c.61,0,.81.11.81.21,0,.51-1,1.43-3.16,2-2.75.71-3.36.92-7.24,2-4.29,1.12-17.44,4.08-23.36,4.08-6.63,0-32.85,0-32.85-30.6,0-30,30.91-38.56,43.76-38.56,11.63,0,18.37,4.08,18.37,7.65,0,.2,0,.31-.51,1.73a22,22,0,0,0-3.17,7.25c-.1,1.22-1.12,2.65-1.93,2.65-.21,0-.31-.31-.31-.61l.2-3.47c0-5.41-6.22-11.53-19.68-11.53-15.1,0-25.5,10.61-25.5,29.07,0,25.61,18.36,32.75,29.17,32.75,4,0,6.63-.51,8.06-1.33,1.63-.51,1.63-1.63,1.63-5.3,0-4.49-.31-11.33-.41-13-.2-1.94-.82-2.55-3-2.55-1.83,0-12.95-.92-12.95-1.63,0-.51,5.61-3,6.22-3Z" transform="translate(-502.04 -137.27)"/><path d="M624.92,877.06a3.92,3.92,0,0,0-.82-1.84,21.39,21.39,0,0,1-2.24-5.51c-3.88-12.65-11-28.46-14.59-33-.81-1.53-2.34-2.14-8.36-2.44-.41-.11-.51-.21-.51-.31,0-.31,3.77-2.24,4.59-2.35,5.41-.1,11.83.21,16.63-1.83a2.68,2.68,0,0,1,.71-.21c.1,0,.2,0,.2.21,0,.71-2.24,3.67-2.24,4.38a3,3,0,0,0,.31,1.23c1.73,4.08,8,21.52,11.11,30,.11.3.31.61.62.61,1.83,0,8.77-24.38,8.77-29.79,0-.71-.2-1.22-1.12-1.32-1.84-.31-4.59-.72-6.12-1-.31-.1-.41-.1-.41-.31s4.59-2.55,5.2-2.55a47.65,47.65,0,0,0,6,.31c3.57,0,7.65-.31,10.61-1.63a.34.34,0,0,0,.2-.11.38.38,0,0,1,.21.11c0,.1-.72,3.16-7.65,4.59a2.92,2.92,0,0,0-2,2c-2.15,5.91-8.27,24.78-13,35-8.06,17.45-12.75,23.36-16.83,26.93-3.26,3-5.81,3.88-7.65,3.88-2.24,0-3.77-.31-5.41-1.84a8.09,8.09,0,0,1-2.24-4.59c0-.4.1-.51.31-.51a1.94,1.94,0,0,1,.51.21,10,10,0,0,0,5,1C616.35,896.44,624.92,879.3,624.92,877.06Z" transform="translate(-502.04 -137.27)"/><path d="M696.93,848c0,5.61-2.34,12.35-6.83,16.33-1.94,1.83-12.24,9.89-20.71,9.89-10.71,0-16.63-8.26-16.63-18.46,0-9.08,3.78-13.88,7.76-17,3.57-2.75,13.05-9,19.38-9C692.24,829.73,696.93,838.5,696.93,848Zm-34.88,2.35c0,8.77,4,19.18,14.28,19.18,9.59,0,11.32-9.28,11.32-15.1,0-9.49-3.47-20.2-14.79-20.2C669.49,834.21,662.05,836.66,662.05,850.33Z" transform="translate(-502.04 -137.27)"/><path d="M734.06,807.39c.2,0,.2,0,.2.1,0,1.12-3.87,3-8.57,3.88-1.22.2-1.52,1.12-1.83,2.55-.1,2.85-.21,13.46-.21,20.4,0,7.14-.61,25-.61,32.23,0,2.14,1.94,3.26,11.53,3.26,10.3,0,15.61-1.53,18.67-12.95.1-.31.3-.51.4-.51s.72.1.72,2c0,4.28-3.37,9.89-4.49,11.32-2.45,3-4.28,3.57-7.65,3.57-3.67,0-21.63-.61-25.71-.61a84.68,84.68,0,0,0-14.68,1c-.21,0-.41.1-.62.1a.35.35,0,0,1-.2-.1c0-1.63,6.43-3.16,9.08-3.88,1-.3,1.63-.91,2.14-2.55,1-3.06,1.53-17.75,1.53-27.13,0-13.26-.2-24.07-1.22-27.13-.21-.62-.41-1-1.64-1.33s-5.2-.61-7.24-1.12c-.61-.1-.81-.31-.81-.41,0-.41,4.89-2.24,5.4-2.24h.1c2.25.3,8,.61,11.73.61,7.45,0,10.51-.41,13.78-1.12Z" transform="translate(-502.04 -137.27)"/><path d="M767.21,852.27c.41,10.2,5.4,16.32,16.11,16.32,5.1,0,9.49-2.65,12.55-5.51.2-.1.31-.2.41-.2s.1.1.1.3c0,3.57-13.87,11-21.73,11-11.11,0-16.52-7.85-16.52-18.46,0-7.14,2.35-13,5.3-16.22,4.59-5.1,14.28-9.79,18.16-9.79,7,0,11.22,5,11.22,11.32a13.09,13.09,0,0,1-.31,2.85c0,.51.21.62.51.62a11,11,0,0,1,1.64-.21,1,1,0,0,1,.61-.2c.1,0,.1,0,.1.1,0,1-1.63,1.63-1.84,1.73-5.91,2.66-20.09,4.19-25.29,4.6a1.28,1.28,0,0,0-1,1.42Zm.2-6c0,.92.41,1.22,1.23,1.22a94.67,94.67,0,0,0,13.77-1c2.14-.52,2.14-1.74,2.14-2.86,0-5.71-2.45-10.1-8.37-10.1C771.7,833.5,767.72,838.4,767.41,846.25Z" transform="translate(-502.04 -137.27)"/><path d="M814.13,852c0,8.78.41,16.43,8.77,16.43a10.39,10.39,0,0,0,7.85-4c.11-.21.21-.21.31-.21s.2.21.2.51c0,2.35-5.81,9.18-15,9.18-9.79,0-11.53-7-11.53-15.09,0-7,.11-17.14.31-21.22,0-.71-.2-1.63-1.33-1.63-.51,0-7.34-.72-7.34-1.53,0-.31,3.87-3.37,4.89-3.37.52,0,2.76.31,3.27.31s.92-.21,1.12-1.63c.51-4.9.82-7.35,1.84-8.47,2.65-3.06,8.36-6.94,9.28-6.94a.22.22,0,0,1,.2.21,1.35,1.35,0,0,1-.3.71c-1.33,2-1.94,9.79-2,15,0,.91.2,1.12,1.53,1.22a36,36,0,0,0,4.79.2c3.16,0,8.06-.61,9.9-1.53a1.1,1.1,0,0,1,.71-.2c.1,0,.2,0,.2.1,0,.31-.3.72-.81,1.23-4.29,4-11,4.69-15.61,4.69-1.22,0-1.22.51-1.22,5.1Z" transform="translate(-502.04 -137.27)"/><path d="M857.58,839.31a5.39,5.39,0,0,0-1-3.46,8.52,8.52,0,0,0-6.32-2.45c-5.31,0-7.76,3.57-7.76,6.93,0,2.76,1.43,4.39,4.59,5.72,2.15,1,5.1,1.53,8.37,2.55,6.32,1.63,9,4.08,9,7.95,0,5.61-4.48,9.49-9.28,12.75-4.28,3-8.67,4.9-14,4.9-4.49,0-8.16-1.53-8.16-4.59a1.91,1.91,0,0,1,.51-1.43,19.94,19.94,0,0,0,3-6.12c.11-.3.21-.51.51-.51.51,0,.51,1,.51,2.55,0,2.25,2.35,5.82,10.1,5.82,5.82,0,8.67-2.45,8.67-6.63,0-4.49-3.77-5.41-13.26-7.76-4.79-1.42-7.85-3.47-7.85-8.77,0-6.12,4.08-9.79,8.57-12.85a20.73,20.73,0,0,1,12.14-4.18c4.08,0,6.12,1.42,6.12,3.36a2,2,0,0,1-.31,1c-1.22,2.14-1.73,2.76-2.14,4.49-.31,1.43-.92,2.75-1.74,2.75-.2,0-.3-.2-.3-.51Z" transform="translate(-502.04 -137.27)"/></svg>